<?xml version="1.0" encoding="UTF-8"?> <!-- Generator: Adobe Illustrator 23.1.0, SVG Export Plug-In . SVG Version: 6.00 Build 0) --> <svg xmlns="http://www.w3.org/2000/svg" xmlns:xlink="http://www.w3.org/1999/xlink" version="1.1" id="Layer_1" x="0px" y="0px" viewBox="0 0 512 512" style="enable-background:new 0 0 512 512;" xml:space="preserve"> <style type="text/css"> .st0{fill:#B6312A;} </style> <title>Car Cleaning</title> <path class="st0" d="M99.4,333.3c-14.9,0-27,12.1-27,27s12.1,27,27,27s27-12.1,27-27C126.4,345.4,114.3,333.3,99.4,333.3z M99.4,373.3c-7.2,0-13-5.8-13-13s5.8-13,13-13s13,5.8,13,13l0,0C112.4,367.5,106.6,373.3,99.4,373.3L99.4,373.3z"></path> <path class="st0" d="M412.6,333.3c-14.9,0-27,12.1-27,27s12.1,27,27,27s27-12.1,27-27C439.6,345.4,427.5,333.3,412.6,333.3z M412.6,373.3c-7.2,0-13-5.8-13-13s5.8-13,13-13s13,5.8,13,13l0,0C425.6,367.5,419.8,373.3,412.6,373.3L412.6,373.3z"></path> <path class="st0" d="M491.1,286.5c1.3-1.4,2-3.3,1.9-5.2c-0.4-5.9-1.6-11.7-3.4-17.3c-4.1-12.3-17-20.2-32.9-20.2 c-9.5,0-26.9-0.1-34.8-0.1L406.3,215c-10.9-19.6-26.9-42-53.4-42H160.8c-21.6,0-40.8,14.9-54.1,42.1l-16.3,28.8 c-7.9,0-25.4-0.1-35.1-0.1c-15.9,0-28.8,7.9-32.9,20.2c-1.9,5.6-3,11.4-3.4,17.3c-0.1,2,0.6,3.9,1.9,5.4c1.3,1.4,3.1,2.3,5.1,2.4h0 l24.3-0.2c-10.6,8.1-17.4,21.4-17.4,36.9c0,0.3,0,0.6,0.1,0.8l11.2,89.1c0.3,12.6,9.4,23.2,21.8,25.4v28.5 c0.1,9.1,7.5,16.5,16.7,16.4c0,0,0,0,0.1,0H112c9.2,0,17-7.3,17-16.4V441h254v28.6c0,9.2,7.8,16.4,17,16.4h29.3 c9.1,0.1,16.6-7.2,16.7-16.4c0,0,0,0,0,0v-28.6c12.2-2.3,21.1-12.9,21.3-25.3l11.8-89.1c0-0.3,0.1-0.6,0.1-0.9 c0-15.4-7.1-28.9-18-37l24.9,0C487.9,288.6,489.7,287.8,491.1,286.5z M119,221.7c0.1-0.1,0.1-0.2,0.2-0.3 c6.2-12.9,20-34.4,41.6-34.4h192.1c15.2,0,27.6,10.4,41.2,34.9l32.1,59.1h-34.5c-3.1-25.8-26.6-44.1-52.3-41 c-21.5,2.6-38.4,19.5-41,41H85.6L119,221.7z M377.5,281h-65c3.1-17.9,20.2-30,38.2-26.8C364.4,256.6,375.1,267.3,377.5,281z M34.1,274.6c0.4-2.1,1-4.2,1.7-6.2c2.1-6.4,10-10.6,19.6-10.6c7.1,0,18.5,0,27.2,0L73,274.6L34.1,274.6z M115,469.6 c0,1.5-1.5,2.4-3,2.4H82.7c-1.4,0.1-2.6-1-2.7-2.4c0,0,0-0.1,0-0.1V441h35V469.6z M432,469.6c-0.1,1.4-1.2,2.5-2.7,2.4 c0,0-0.1,0-0.1,0H400c-1.5,0-3-1-3-2.4V441h35L432,469.6z M465.1,325.3l-11.8,89c0,0.2-0.1,0.5-0.1,0.7c0,6.7-5.5,12.1-12.2,12.1 c0,0-0.1,0-0.1,0H70.5c-6.7,0.1-12.2-5.3-12.3-12c0,0,0-0.1,0-0.1c0-0.3,0-0.5-0.1-0.8l-11.3-89c0.2-14.7,9.7-29.6,25.5-30.4 c0.4,0.1,0.8,0.2,1.2,0.2h364c0.1,0,0.1-0.1,0.2-0.1C452.7,294.9,464.9,308.5,465.1,325.3z M438.7,274.7l-9.2-17 c8.6,0,20,0.1,27.1,0.1c9.6,0,17.5,4.3,19.6,10.7c0.7,2,1.2,4.1,1.7,6.2L438.7,274.7z"></path> <path class="st0" d="M163.4,375h185.2c3.8,0,7-3.1,7-6.9c0-0.8-0.1-1.6-0.4-2.3l-6.4-18.8c-4.4-12.9-18.5-23-32.1-23H194.8 c-13.7,0-27.7,10.2-31.9,23.2l-6.1,18.7c-1.2,3.6,0.8,7.6,4.4,8.8C161.9,374.9,162.6,375,163.4,375z M176.1,351.5 c2.4-7.2,11.1-13.5,18.6-13.5h121.9c7.6,0,16.4,6.3,18.9,13.5l3.2,9.5H173L176.1,351.5z"></path> <path class="st0" d="M373.1,386H144.6c-3.9,0-7,3.1-7,7s3.1,7,7,7h228.5c3.9,0,7-3.1,7-7S376.9,386,373.1,386z"></path> <path class="st0" d="M266,102.1c-2.5,0-4.8,1.3-6,3.5l-13.5,23c-6.3,10.8-2.7,24.6,8.1,30.9s24.6,2.7,30.9-8.1 c4.1-7.1,4.1-15.8,0-22.9l-13.5-23C270.8,103.4,268.5,102.1,266,102.1z M272.1,146.1c-3.4,3.4-8.8,3.4-12.2,0 c-2.8-2.8-3.3-7.1-1.3-10.4L266,123l7.4,12.7C275.4,139,274.9,143.3,272.1,146.1L272.1,146.1z"></path> <path class="st0" d="M191.6,102.1c-2.5,0-4.8,1.3-6,3.5l-13.5,23c-6.3,10.8-2.7,24.6,8.1,30.9s24.6,2.7,30.9-8.1 c4.1-7.1,4.1-15.8,0-22.9l-13.5-23C196.4,103.4,194.1,102.1,191.6,102.1z M197.7,146.1c-3.4,3.4-8.8,3.4-12.2,0 c-2.8-2.8-3.3-7.1-1.3-10.4l7.4-12.7l7.4,12.7C201,139,200.5,143.3,197.7,146.1z"></path> <path class="st0" d="M324.4,156c8.8,8.8,23.1,8.8,32,0c7.3-7.3,8.7-18.6,3.5-27.4l-13.5-23c-2-3.3-6.2-4.5-9.6-2.5 c-1,0.6-1.9,1.5-2.5,2.5l-13.5,23C315.7,137.5,317.1,148.7,324.4,156z M333,135.7l7.4-12.7l7.4,12.7c2.4,4.1,1,9.4-3.1,11.8 c-4.1,2.4-9.4,1-11.8-3.1C331.4,141.7,331.4,138.3,333,135.7L333,135.7z"></path> <path class="st0" d="M231.4,29.2c-2-3.3-6.2-4.5-9.6-2.5c-1,0.6-1.9,1.5-2.5,2.5l-13.5,23c-6.3,10.8-2.7,24.6,8.1,30.9 s24.6,2.7,30.9-8.1c4.1-7.1,4.1-15.8,0-22.9L231.4,29.2z M231.4,69.8c-3.4,3.4-8.8,3.4-12.2,0c-2.8-2.8-3.3-7.1-1.3-10.4l7.4-12.7 l7.4,12.7C234.8,62.7,234.2,67,231.4,69.8L231.4,69.8z"></path> <path class="st0" d="M312.7,29.2c-2-3.3-6.2-4.5-9.6-2.5c-1,0.6-1.9,1.5-2.5,2.5l-13.5,23c-6.3,10.8-2.7,24.6,8.1,30.9 s24.6,2.7,30.9-8.1c4.1-7.1,4.1-15.8,0-22.9L312.7,29.2z M312.7,69.8c-3.4,3.4-8.8,3.4-12.2,0c-2.8-2.8-3.3-7.1-1.3-10.4l7.4-12.7 l7.4,12.7C316,62.7,315.5,67,312.7,69.8z"></path> </svg> 