<?xml version="1.0" encoding="UTF-8"?> <!-- Generator: Adobe Illustrator 23.1.0, SVG Export Plug-In . SVG Version: 6.00 Build 0) --> <svg xmlns="http://www.w3.org/2000/svg" xmlns:xlink="http://www.w3.org/1999/xlink" version="1.1" id="Layer_1" x="0px" y="0px" viewBox="0 0 512 512" style="enable-background:new 0 0 512 512;" xml:space="preserve"> <style type="text/css"> .st0{fill:#B6312A;} </style> <title>Automobile Services</title> <path class="st0" d="M96.7,131.3l-16.3,28.9c-7.9,0-25.4,0-35.1,0c-15.9,0-28.8,8-32.9,20.2c-1.9,5.6-3,11.4-3.4,17.3 c-0.1,1.9,0.6,3.7,1.9,5.1c1.3,1.4,3.2,2.1,5.1,2.1h0l24.3,0c-10.6,8.1-17.4,21.5-17.4,37.1c0,0.3,0,0.6,0.1,0.9l11.2,89.1 c0.3,12.6,9.4,23.2,21.8,25.4v28.5c0,9.3,7.5,16.8,16.7,16.9H102c9.3-0.1,16.8-7.6,17-16.9V358h250.6c-28.9,31.1-27.1,79.8,4,108.7 c5.4,5,11.5,9.2,18.1,12.5c2.2,1.1,4.8,1,6.9-0.3c2.1-1.3,3.4-3.5,3.4-6v-36.4l23.8-15.9l24.5,17.2l-0.1,35.2c0,3.9,3.1,7,6.9,7 c1.1,0,2.2-0.2,3.2-0.7c38-19.1,53.4-65.4,34.3-103.4c-8-15.9-21.3-28.6-37.6-35.9V172.1c38.9-17.3,56.4-62.7,39.1-101.6 c-7.2-16.3-19.9-29.6-35.9-37.6c-3.5-1.7-7.7-0.3-9.5,3.2c-0.5,1-0.7,2-0.7,3.1v36.4l-23.8,15.9l-24.5-17.2l0.1-35.2 c0-3.9-3.1-7-6.9-7c-1.1,0-2.2,0.2-3.2,0.7c-22.4,11-38,32.2-41.8,56.9c-2.3-0.4-4.7-0.7-7.1-0.7H150.8 C129.1,89,109.9,104.1,96.7,131.3z M24.1,191.1c0.4-2.1,1-4.2,1.7-6.2c2.1-6.4,10-10.7,19.6-10.7c7.1,0,18.5,0,27.2,0L63,191.1 L24.1,191.1z M105,386.1c-0.1,1.6-1.4,2.8-3,2.9H72.7c-1.5-0.1-2.7-1.4-2.7-2.9V358h35V386.1z M60.5,344c-6.8,0-12.3-5.5-12.3-12.3 c0-0.3,0-0.6-0.1-0.9l-11.3-89c0.2-18.5,12.8-29.9,25.5-30.7c0.4,0,0.8,0,1.2-0.1H394v40c-10,3.4-18.9,13.7-18.9,25.8 s8.9,22.3,18.9,25.8v37.4c-2,1.2-4.7,2.1-7.2,4.1L60.5,344z M302.5,197c2.7-15,16.2-27.3,32.5-27.3s29.8,12.3,32.5,27.3H302.5z M394,266.6V287c-2-2.4-4.9-6-4.9-10.2S392,269,394,266.6z M387.8,51.6l-0.1,26.3c0,2.3,1.1,4.4,3,5.8l31.4,22 c2.4,1.7,5.5,1.7,7.9,0.1L461,85.1c1.9-1.3,3.1-3.5,3-5.8V51.7c16,11.8,24.9,30.1,24.9,50.1c-0.2,26.3-16.5,49.8-41.1,59 c-2.8,1-4.7,3.6-4.7,6.6v177.3c0.1,3,2,5.6,4.8,6.6c24.6,9.3,40.9,32.7,41.1,59c0.1,19.7-9.1,38.3-24.8,50.2l0.1-26.3 c0-2.3-1.1-4.4-3-5.8l-31.4-22c-2.4-1.7-5.5-1.7-7.9-0.1L391,426.9c-1.9,1.3-3.1,3.5-3,5.8v27.6c-16-11.8-24.9-30.1-24.9-50.1 c0-21.5,11-41.5,29.1-53.1c0.3-0.2,0.5-0.3,0.8-0.5c3.4-2.2,7-4,10.7-5.4c2.7-1.1,4.4-3.7,4.3-6.6V167.4c0.1-2.9-1.6-5.5-4.3-6.6 c-32.6-12.3-49.1-48.6-36.8-81.2C371.1,68.5,378.3,58.8,387.8,51.6L387.8,51.6z M348.8,103.8c0.8,29.5,19.2,56.3,45.2,68.3V197 h-12.4c-3.1-25.8-26.6-44.1-52.3-41c-21.5,2.6-38.4,19.5-41,41H75.6l33.4-59c0.1-0.1,0.1-0.3,0.2-0.4c6.2-12.9,20-34.5,41.6-34.5 h192.1C344.9,103,346.8,103.3,348.8,103.8z"></path> <path class="st0" d="M89.4,249.8c-14.9,0-27,12.1-27,27s12.1,27,27,27s27-12.1,27-27l0,0C116.4,261.9,104.3,249.8,89.4,249.8z M89.4,289.8c-7.2,0-13-5.8-13-13s5.8-13,13-13s13,5.8,13,13C102.4,284,96.6,289.8,89.4,289.8L89.4,289.8z"></path> <path class="st0" d="M153.4,292h185.2c4-0.2,7.2-3.6,7-7.6c0-0.7-0.1-1.3-0.4-2l-6.4-18.6c-4.4-12.9-18.5-22.8-32.1-22.8H184.8 c-13.7,0-27.7,9.9-31.9,22.9l-6.1,18.6c-0.7,2.2-0.3,4.6,1,6.4C149,290.8,151.1,291.9,153.4,292z M166.1,268.5 c2.4-7.2,11.1-13.5,18.6-13.5h121.9c7.6,0,16.4,6.3,18.9,13.5l3.2,9.5H163L166.1,268.5z"></path> <path class="st0" d="M363.1,302H134.6c-3.9,0-7,3.1-7,7s3.1,7,7,7h228.5c3.9,0,7-3.1,7-7S366.9,302,363.1,302z"></path> </svg> 