<?xml version="1.0" encoding="UTF-8"?> <!-- Generator: Adobe Illustrator 23.1.0, SVG Export Plug-In . SVG Version: 6.00 Build 0) --> <svg xmlns="http://www.w3.org/2000/svg" xmlns:xlink="http://www.w3.org/1999/xlink" version="1.1" id="Layer_1" x="0px" y="0px" viewBox="0 0 512 512" style="enable-background:new 0 0 512 512;" xml:space="preserve"> <style type="text/css"> .st0{fill:#B6312A;} </style> <title>Car Documents dollar</title> <path class="st0" d="M362,291c-5.7,0-11.4,0.5-17,1.5V142c0-1.9-0.7-3.6-2-4.9l-112-112c-1.3-1.3-3.1-2.1-5-2.1H86 c-19.3,0-35,15.7-35,35v336c0,19.3,15.7,35,35,35h185c21.5,50.3,79.7,73.5,130,52s73.5-79.7,52-130C437.4,314.6,401.6,291,362,291z M233,46.9l88.1,88.1H254c-11.6,0-21-9.4-21-21V46.9z M266.2,415H86c-11.6,0-21-9.4-21-21V58c0-11.6,9.4-21,21-21h133v77 c0,19.3,15.7,35,35,35h77v147C281.4,312.3,253,364.4,266.2,415z M362,475c-46.9,0-85-38.1-85-85s38.1-85,85-85s85,38.1,85,85l0,0 C446.9,436.9,408.9,474.9,362,475z"></path> <path class="st0" d="M362,346.7c10.8,0,19.6,8.8,19.6,19.6c0,3.9,3.1,7,7,7s7-3.1,7-7c0-15.9-11.1-29.6-26.6-32.9v-8.4 c0-3.9-3.1-7-7-7s-7,3.1-7,7v8.4c-18.2,3.9-29.8,21.7-25.9,39.9c3.3,15.5,17,26.6,32.9,26.6c10.8-0.1,19.7,8.7,19.7,19.5 c0.1,10.8-8.7,19.7-19.5,19.7c-0.1,0-0.1,0-0.2,0s-0.1,0-0.2,0c-10.8-0.1-19.4-8.9-19.5-19.6c0-3.9-3.1-7-7-7s-7,3.1-7,7 c0,15.9,11.1,29.6,26.6,32.9v9.6c0,3.9,3.1,7,7,7s7-3.1,7-7v-9.6c18.2-3.9,29.8-21.7,25.9-39.9c-3.3-15.5-17-26.7-32.9-26.6 c-10.8,0-19.6-8.8-19.7-19.6C342.3,355.5,351.1,346.7,362,346.7C362,346.7,362,346.7,362,346.7L362,346.7z"></path> <path class="st0" d="M247,327H103c-3.9,0-7,3.1-7,7s3.1,7,7,7l0,0h144c3.9,0,7-3.1,7-7S250.9,327,247,327z"></path> <path class="st0" d="M210,361H103c-3.9,0-7,3.1-7,7s3.1,7,7,7l0,0h107c3.9,0,7-3.1,7-7S213.9,361,210,361z"></path> <path class="st0" d="M300,225.1c0-0.3,0-0.6,0-0.9c0-11.9-7.9-21.8-18.4-24l-15.7-28.9c-5.6-10-13.8-21.3-28-21.3h-79.2 c-11.5,0-21.5,7.6-28.3,21.4l-16.2,28.7c-10.5,2.1-18.3,11.9-18.3,24.1c0,0.3,0,0.6,0.1,0.9l5,40.9c0.2,6.5,4.9,12,9.9,14.3v10.3 c0,6.3,5.5,11.3,11.8,11.3h13.5c6.4,0.1,11.6-5,11.7-11.3V281h100v9.7c0.1,6.3,5.4,11.4,11.7,11.3h13.5c6.3,0,11.8-5,11.8-11.3 v-10.4c5-2.3,9.5-7.8,9.7-14.2L300,225.1z M142.8,178.2c0.1-0.1,0.1-0.3,0.2-0.4c2.5-5.1,7.9-13.8,15.8-13.8H238 c5.5,0,10.2,4.3,15.7,14.2l11.8,21.8H259c-3.5-13.6-17.4-21.8-31-18.3c-8.9,2.3-15.9,9.3-18.3,18.3h-79.1L142.8,178.2z M243.8,200 h-19c3.5-5.3,10.6-6.7,15.9-3.1C241.9,197.7,243,198.8,243.8,200z M134,288h-9v-7h9V288z M271,288h-9v-7h9V288z M280.6,264.6 c0,0.2-0.1,0.5-0.1,0.7c0,1-0.8,1.7-1.8,1.7c0,0-0.1,0-0.1,0H117.1c-1,0.1-1.8-0.6-1.9-1.6c0,0,0-0.1,0-0.1c0-0.3,0-0.5-0.1-0.8 l-5.2-40.7c0.2-4.9,3.1-9.6,8-10c0.2,0,0.4,0.2,0.5,0.2h158.5c0,0,0.1-0.1,0.1-0.1c5.3,0,8.6,5.1,8.8,10L280.6,264.6z"></path> <path class="st0" d="M224.7,242h-53.5c-3.9,0-7,3.1-7,7s3.1,7,7,7h53.5c3.9,0,7-3.1,7-7S228.6,242,224.7,242z"></path> <path class="st0" d="M134.3,225.4c-10.3,0-18.7,8.4-18.7,18.7c0,10.3,8.4,18.7,18.7,18.7S153,254.4,153,244v0 C152.9,233.7,144.6,225.4,134.3,225.4z M134.3,248.7c-2.6,0-4.7-2.1-4.7-4.7s2.1-4.7,4.7-4.7s4.7,2.1,4.7,4.7v0 C139,246.6,136.9,248.7,134.3,248.7z"></path> <path class="st0" d="M261.7,225.4c-10.3,0-18.7,8.4-18.7,18.7c0,10.3,8.4,18.7,18.7,18.7c10.3,0,18.7-8.4,18.7-18.7c0,0,0,0,0,0 C280.4,233.7,272,225.4,261.7,225.4z M261.7,248.7c-2.6,0-4.7-2.1-4.7-4.7s2.1-4.7,4.7-4.7s4.7,2.1,4.7,4.7c0,0,0,0,0,0 C266.4,246.6,264.3,248.7,261.7,248.7z"></path> </svg> 